<svg width="207" height="52" viewBox="0 0 207 52" fill="none" xmlns="http://www.w3.org/2000/svg">
    <path d="M81.3495 11.4764C74.0419 5.7311 63.5365 6.70861 56.986 13.318L52.7681 17.5724L60.2559 25.1252L64.5968 20.7467C67.3175 18.0024 71.6753 17.5104 74.7523 19.8376C76.7003 21.2994 77.8484 23.6043 77.8484 26.0535C77.8484 28.5026 76.7003 30.8076 74.7523 32.2693C71.6753 34.5965 67.3175 34.1024 64.5968 31.3603L59.588 26.308L59.3377 26.0535L51.8478 18.5008L51.5955 18.2462L42.7653 9.3374C38.3719 4.90032 32.4058 2.41312 26.1887 2.42638H8.73408C5.44373 2.43109 2.77851 5.12234 2.77734 8.44117V26.8363L2.79431 26.8149C2.9933 33.5313 6.02537 39.8426 11.1282 44.162C20.4885 52.1275 34.4547 51.1586 43.1216 42.423L51.8563 33.6126L56.9945 38.7953C63.545 45.4026 74.0483 46.3823 81.3558 40.6391C85.8275 37.1458 88.4445 31.7613 88.4433 26.0563C88.442 20.351 85.8228 14.9678 81.3495 11.4764ZM35.2775 35.219C31.6163 38.9382 26.0903 40.0578 21.2892 38.0529C16.4882 36.048 13.3638 31.316 13.3802 26.0749V16.6826C13.3802 14.7028 14.9715 13.0977 16.9344 13.0977H26.1272C29.5538 13.0703 32.848 14.4461 35.2712 16.8901L44.3558 26.0535L35.2775 35.219Z"
          fill="url(#paint0_linear_1372_2562)"/>
    <path d="M32.2357 29.1934V22.9134C32.2357 22.3081 32.5559 21.749 33.0754 21.4463C33.595 21.1436 34.2354 21.1436 34.755 21.4463C35.2745 21.749 35.5947 22.3081 35.5947 22.9134V29.1934C35.5947 30.129 34.8427 30.8875 33.9152 30.8875C32.9877 30.8875 32.2357 30.129 32.2357 29.1934ZM19.0244 29.1934V22.9134C19.0244 21.9778 19.7764 21.2194 20.7039 21.2194C21.6315 21.2194 22.3834 21.9778 22.3834 22.9134V29.1934C22.3834 30.129 21.6315 30.8875 20.7039 30.8875C19.7764 30.8875 19.0244 30.129 19.0244 29.1934Z"
          fill="#4CC9E9"/>
    <path d="M25.6309 31.9399V20.1756C25.6309 19.24 26.3828 18.4815 27.3104 18.4815C28.2379 18.4815 28.9899 19.24 28.9899 20.1756V31.9399C28.9899 32.5452 28.6697 33.1044 28.1501 33.407C27.6306 33.7097 26.9902 33.7097 26.4706 33.407C25.9511 33.1044 25.6309 32.5452 25.6309 31.9399Z"
          fill="#3281AA"/>
    <path d="M72.8033 27.724V24.3829C72.7872 24.0503 72.9541 23.7359 73.2372 23.5647C73.5203 23.3936 73.874 23.3936 74.1571 23.5647C74.4402 23.7359 74.6071 24.0503 74.5909 24.3829V27.724C74.6071 28.0566 74.4402 28.371 74.1571 28.5421C73.874 28.7132 73.5203 28.7132 73.2372 28.5421C72.9541 28.371 72.7872 28.0566 72.8033 27.724ZM65.7735 27.724V24.3829C65.7574 24.0503 65.9243 23.7359 66.2074 23.5647C66.4905 23.3936 66.8442 23.3936 67.1273 23.5647C67.4104 23.7359 67.5773 24.0503 67.5612 24.3829V27.724C67.5773 28.0566 67.4104 28.371 67.1273 28.5421C66.8442 28.7132 66.4905 28.7132 66.2074 28.5421C65.9243 28.371 65.7574 28.0566 65.7735 27.724Z"
          fill="#4CC9E9"/>
    <path d="M69.2892 29.1849V22.9198C69.3125 22.439 69.7056 22.061 70.183 22.061C70.6603 22.061 71.0535 22.439 71.0768 22.9198V29.1849C71.0929 29.5175 70.926 29.8319 70.6429 30.003C70.3598 30.1742 70.0061 30.1742 69.723 30.003C69.4399 29.8319 69.273 29.5175 69.2892 29.1849Z"
          fill="#3281AA"/>
    <path d="M45.2121 40.3001L51.8472 33.6075L44.3587 26.0541L37.7236 32.7468L45.2121 40.3001Z"
          fill="url(#paint1_linear_1372_2562)"/>
    <path d="M81.3495 11.4764C74.0419 5.7311 63.5365 6.70861 56.986 13.318L52.7681 17.5724L60.2559 25.1252L64.5968 20.7467C67.3175 18.0024 71.6753 17.5104 74.7523 19.8376C76.7003 21.2994 77.8484 23.6043 77.8484 26.0535C77.8484 28.5026 76.7003 30.8076 74.7523 32.2693C71.6753 34.5965 67.3175 34.1024 64.5968 31.3603L59.588 26.308L59.3377 26.0535L51.8478 18.5008L51.5955 18.2462L42.7653 9.3374C38.3719 4.90032 32.4058 2.41312 26.1887 2.42638H8.73408C5.44373 2.43109 2.77851 5.12234 2.77734 8.44117V26.8363L2.79431 26.8149C2.9933 33.5313 6.02537 39.8426 11.1282 44.162C20.4885 52.1275 34.4547 51.1586 43.1216 42.423L51.8563 33.6126L56.9945 38.7953C63.545 45.4026 74.0483 46.3823 81.3558 40.6391C85.8275 37.1458 88.4445 31.7613 88.4433 26.0563C88.442 20.351 85.8228 14.9678 81.3495 11.4764ZM35.2775 35.219C31.6163 38.9382 26.0903 40.0578 21.2892 38.0529C16.4882 36.048 13.3638 31.316 13.3802 26.0749V16.6826C13.3802 14.7028 14.9715 13.0977 16.9344 13.0977H26.1272C29.5538 13.0703 32.848 14.4461 35.2712 16.8901L44.3558 26.0535L35.2775 35.219Z"
          fill="url(#paint2_linear_1372_2562)"/>
    <path d="M32.2357 29.1934V22.9134C32.2357 22.3081 32.5559 21.749 33.0754 21.4463C33.595 21.1436 34.2354 21.1436 34.755 21.4463C35.2745 21.749 35.5947 22.3081 35.5947 22.9134V29.1934C35.5947 30.129 34.8427 30.8875 33.9152 30.8875C32.9877 30.8875 32.2357 30.129 32.2357 29.1934ZM19.0244 29.1934V22.9134C19.0244 21.9778 19.7764 21.2194 20.7039 21.2194C21.6315 21.2194 22.3834 21.9778 22.3834 22.9134V29.1934C22.3834 30.129 21.6315 30.8875 20.7039 30.8875C19.7764 30.8875 19.0244 30.129 19.0244 29.1934Z"
          fill="#4CC9E9"/>
    <path d="M25.6309 31.9399V20.1756C25.6309 19.24 26.3828 18.4815 27.3104 18.4815C28.2379 18.4815 28.9899 19.24 28.9899 20.1756V31.9399C28.9899 32.5452 28.6697 33.1044 28.1501 33.407C27.6306 33.7097 26.9902 33.7097 26.4706 33.407C25.9511 33.1044 25.6309 32.5452 25.6309 31.9399Z"
          fill="#3281AA"/>
    <path d="M72.8033 27.724V24.3829C72.7872 24.0503 72.9541 23.7359 73.2372 23.5647C73.5203 23.3936 73.874 23.3936 74.1571 23.5647C74.4402 23.7359 74.6071 24.0503 74.5909 24.3829V27.724C74.6071 28.0566 74.4402 28.371 74.1571 28.5421C73.874 28.7132 73.5203 28.7132 73.2372 28.5421C72.9541 28.371 72.7872 28.0566 72.8033 27.724ZM65.7735 27.724V24.3829C65.7574 24.0503 65.9243 23.7359 66.2074 23.5647C66.4905 23.3936 66.8442 23.3936 67.1273 23.5647C67.4104 23.7359 67.5773 24.0503 67.5612 24.3829V27.724C67.5773 28.0566 67.4104 28.371 67.1273 28.5421C66.8442 28.7132 66.4905 28.7132 66.2074 28.5421C65.9243 28.371 65.7574 28.0566 65.7735 27.724Z"
          fill="#4CC9E9"/>
    <path d="M69.2892 29.1849V22.9198C69.3125 22.439 69.7056 22.061 70.183 22.061C70.6603 22.061 71.0535 22.439 71.0768 22.9198V29.1849C71.0929 29.5175 70.926 29.8319 70.6429 30.003C70.3598 30.1742 70.0061 30.1742 69.723 30.003C69.4399 29.8319 69.273 29.5175 69.2892 29.1849Z"
          fill="#3281AA"/>
    <path d="M45.2121 40.3001L51.8472 33.6075L44.3587 26.0541L37.7236 32.7468L45.2121 40.3001Z"
          fill="url(#paint3_linear_1372_2562)"/>
    <path d="M114.744 17.7653C114.744 18.6534 115.478 19.3885 116.404 19.3885C117.329 19.3885 118.063 18.6841 118.063 17.7653C118.063 16.8771 117.361 16.1727 116.404 16.1727C115.478 16.1727 114.744 16.8771 114.744 17.7653ZM115.031 35.2279C115.031 35.9859 115.646 36.6004 116.404 36.6004V36.6004C117.162 36.6004 117.776 35.9859 117.776 35.2279V23.303C117.776 22.545 117.162 21.9304 116.404 21.9304V21.9304C115.646 21.9304 115.031 22.545 115.031 23.303V35.2279Z"
          fill="#3D83A6"/>
    <path d="M121.897 29.2501C121.897 31.3021 122.695 33.2009 124.195 34.671C125.664 36.1104 127.547 36.8761 129.622 36.8761C131.696 36.8761 133.612 36.1104 135.08 34.671C136.548 33.2315 137.346 31.3021 137.346 29.2501C137.346 27.1982 136.548 25.2993 135.08 23.8599C133.612 22.4205 131.696 21.6548 129.622 21.6548C127.547 21.6548 125.664 22.4205 124.195 23.8599C122.695 25.33 121.897 27.1982 121.897 29.2501ZM124.738 29.2195C124.738 26.3406 126.94 24.1355 129.622 24.1355C132.303 24.1355 134.505 26.3406 134.505 29.2195C134.505 32.0984 132.303 34.3341 129.622 34.3341C126.94 34.3341 124.738 32.0984 124.738 29.2195Z"
          fill="#3D83A6"/>
    <path d="M142.711 22.7839C142.517 22.2702 142.025 21.9304 141.475 21.9304V21.9304C140.547 21.9304 139.908 22.8628 140.243 23.7288L144.654 35.1304C145.133 36.3554 145.739 36.9067 146.729 36.9067C147.719 36.9067 148.357 36.3554 148.836 35.1304L153.255 23.7086C153.586 22.8524 152.954 21.9304 152.036 21.9304V21.9304C151.493 21.9304 151.007 22.2664 150.814 22.7743L146.761 33.4766L142.711 22.7839Z"
          fill="#58C6E3"/>
    <path d="M156.791 17.7653C156.791 18.6534 157.525 19.3885 158.451 19.3885C159.376 19.3885 160.11 18.6841 160.11 17.7653C160.11 16.8771 159.408 16.1727 158.451 16.1727C157.525 16.1727 156.791 16.8771 156.791 17.7653ZM157.078 35.2279C157.078 35.9859 157.693 36.6004 158.451 36.6004V36.6004C159.209 36.6004 159.823 35.9859 159.823 35.2279V23.303C159.823 22.545 159.209 21.9304 158.451 21.9304V21.9304C157.693 21.9304 157.078 22.545 157.078 23.303V35.2279Z"
          fill="#58C6E3"/>
    <path d="M165.359 34.0891C164.666 34.0891 164.104 34.6513 164.104 35.3448V35.3448C164.104 36.0382 164.666 36.6004 165.359 36.6004H169.275C173.584 36.6004 175.691 35.3448 175.691 32.5884C175.691 30.2914 174.126 29.342 171.318 28.2395L168.572 27.1675C167.423 26.7081 166.881 26.2794 166.881 25.6362C166.881 24.8399 167.487 24.3806 168.54 24.3806H173.699C174.376 24.3806 174.924 23.8321 174.924 23.1555V23.1555C174.924 22.4789 174.376 21.9304 173.699 21.9304H169.275C165.891 21.9304 164.136 23.3086 164.136 25.6362C164.136 27.7801 165.444 28.7907 168.189 29.8627L170.807 30.8733C172.179 31.4246 172.85 31.8534 172.85 32.6803C172.85 33.5378 172.084 34.0891 170.711 34.0891H165.359Z"
          fill="#58C6E3"/>
    <path d="M179.668 17.7653C179.668 18.6534 180.402 19.3885 181.328 19.3885C182.254 19.3885 182.988 18.6841 182.988 17.7653C182.988 16.8771 182.286 16.1727 181.328 16.1727C180.402 16.1727 179.668 16.8771 179.668 17.7653ZM179.956 35.2279C179.956 35.9859 180.57 36.6004 181.328 36.6004V36.6004C182.086 36.6004 182.701 35.9859 182.701 35.2279V23.303C182.701 22.545 182.086 21.9304 181.328 21.9304V21.9304C180.57 21.9304 179.956 22.545 179.956 23.303V35.2279Z"
          fill="#58C6E3"/>
    <path d="M188.928 18.0409C188.17 18.0409 187.556 18.6554 187.556 19.4135V31.149C187.556 34.7935 189.726 36.6004 194.035 36.6004V36.6004C194.529 36.6004 194.929 36.2003 194.929 35.7067V34.9509C194.929 34.4749 194.543 34.0891 194.067 34.0891V34.0891C191.45 34.0891 190.301 33.0478 190.301 30.6896V24.4112H193.689C194.374 24.4112 194.929 23.8558 194.929 23.1708V23.1708C194.929 22.4858 194.374 21.9304 193.689 21.9304H190.301V19.4135C190.301 18.6554 189.686 18.0409 188.928 18.0409V18.0409Z"
          fill="#58C6E3"/>
    <path d="M96.621 15.1927C96.0434 15.1927 95.5752 15.6609 95.5752 16.2384V28.0863C95.5752 29.8627 95.6071 31.394 96.4051 32.864C97.7138 35.3754 100.331 36.8761 103.268 36.8761C107.673 36.8761 110.929 33.691 110.929 29.2501C110.929 26.6163 109.716 24.3806 107.513 22.9105C106.364 22.1449 104.864 21.6855 103.396 21.6855C101.863 21.6855 100.491 22.0223 99.246 22.6961V25.5137C100.523 24.595 101.8 24.1662 103.108 24.1662C106.045 24.1662 108.152 26.2181 108.152 29.2195C108.152 32.374 106.077 34.3954 103.204 34.3954C100.363 34.3954 98.3203 32.374 98.3203 29.2501V16.892C98.3203 15.9535 97.5595 15.1927 96.621 15.1927V15.1927Z"
          fill="#3D83A6"/>
    <defs>
        <linearGradient id="paint0_linear_1372_2562" x1="82.1595" y1="21.0754" x2="15.5984" y2="43.0284"
                        gradientUnits="userSpaceOnUse">
            <stop stop-color="#4CC9E9"/>
            <stop offset="1" stop-color="#3F8AC0"/>
        </linearGradient>
        <linearGradient id="paint1_linear_1372_2562" x1="48.1031" y1="29.8307" x2="41.4105" y2="36.4658"
                        gradientUnits="userSpaceOnUse">
            <stop stop-color="#2F6A94"/>
            <stop offset="1" stop-color="#44A2CF" stop-opacity="0"/>
        </linearGradient>
        <linearGradient id="paint2_linear_1372_2562" x1="82.1595" y1="21.0754" x2="15.5984" y2="43.0284"
                        gradientUnits="userSpaceOnUse">
            <stop stop-color="#4CC9E9"/>
            <stop offset="1" stop-color="#3F8AC0"/>
        </linearGradient>
        <linearGradient id="paint3_linear_1372_2562" x1="48.1031" y1="29.8307" x2="41.4105" y2="36.4658"
                        gradientUnits="userSpaceOnUse">
            <stop stop-color="#2F6A94"/>
            <stop offset="1" stop-color="#44A2CF" stop-opacity="0"/>
        </linearGradient>
    </defs>
</svg>
