<svg width="308" height="96" viewBox="0 0 308 96" fill="none" xmlns="http://www.w3.org/2000/svg">
<path fill-rule="evenodd" clip-rule="evenodd" d="M236.99 39.9188C236.989 40.8232 237.166 41.7189 237.511 42.5546C237.856 43.3902 238.362 44.1495 239.001 44.7886L255.998 59.4379L272.996 44.7886C274.066 43.7152 274.753 42.3179 274.95 40.8135C275.147 39.3091 274.843 37.7817 274.085 36.4681C273.327 35.1545 272.158 34.1281 270.759 33.5481C269.36 32.9681 267.809 32.867 266.347 33.2604C265.968 33.3617 265.565 33.308 265.225 33.1111C264.886 32.9143 264.638 32.5904 264.537 32.2107C264.436 31.831 264.49 31.4267 264.686 31.0865C264.883 30.7464 265.206 30.4984 265.585 30.3971C267.676 29.836 269.894 29.982 271.895 30.8127C273.895 31.6434 275.566 33.1123 276.649 34.9916C277.731 36.8709 278.165 39.0556 277.883 41.2071C277.6 43.3585 276.617 45.3564 275.086 46.891C275.035 46.9426 274.98 46.9902 274.921 47.0336L257.48 62.0638V72L277.019 55.1598C279.211 53.2749 280.97 50.9368 282.175 48.3061C283.38 45.6754 284.003 42.8145 284 39.9198C284 36.66 283.002 33.4788 281.139 30.806C279.277 28.1332 276.641 26.0977 273.588 24.9746C270.534 23.8516 267.21 23.695 264.064 24.5261C260.919 25.3573 258.104 27.136 256 29.622C253.896 27.1359 251.081 25.3572 247.935 24.5261C244.79 23.695 241.466 23.8516 238.412 24.9748C235.358 26.098 232.722 28.1337 230.86 30.8066C228.998 33.4796 228 36.661 228 39.9209C227.998 42.8155 228.62 45.6763 229.826 48.3068C231.031 50.9374 232.79 53.2752 234.983 55.1598L254.519 72V62.0627L237.078 47.0346C237.019 46.9912 236.964 46.9436 236.913 46.892C235.382 45.3574 234.399 43.3595 234.116 41.2081C233.834 39.0567 234.267 36.8719 235.35 34.9926C236.433 33.1133 238.104 31.6444 240.104 30.8137C242.105 29.9831 244.323 29.837 246.414 30.3982C246.605 30.4455 246.784 30.5303 246.941 30.6477C247.098 30.7651 247.231 30.9127 247.331 31.0819C247.43 31.2511 247.496 31.4386 247.522 31.6333C247.549 31.828 247.537 32.0261 247.487 32.2161C247.436 32.4061 247.349 32.5841 247.229 32.7398C247.109 32.8955 246.96 33.0257 246.789 33.1229C246.619 33.2201 246.431 33.2823 246.236 33.3059C246.041 33.3295 245.844 33.314 245.655 33.2604C244.636 32.9868 243.568 32.9519 242.533 33.1582C241.498 33.3645 240.525 33.8066 239.688 34.4503C238.851 35.0939 238.172 35.9219 237.706 36.8701C237.239 37.8184 236.996 38.8615 236.996 39.9188H236.99Z" fill="#ED1C24"/>
<path d="M86.6551 39.4936L95.7521 30.1787C95.849 30.0842 95.9261 29.9706 95.9788 29.8446C96.0315 29.7187 96.0587 29.5832 96.0587 29.4462C96.0587 29.3092 96.0315 29.1736 95.9788 29.0477C95.9261 28.9217 95.849 28.8081 95.7521 28.7136L91.4586 24.3193C91.3699 24.2219 91.263 24.1436 91.1443 24.089C91.0256 24.0344 90.8975 24.0046 90.7674 24.0013C90.6373 23.9981 90.5079 24.0214 90.3868 24.0701C90.2656 24.1187 90.1552 24.1915 90.0619 24.2844L71.5943 43.1913L71.5603 43.2262C71.3846 43.423 71.2901 43.6818 71.2964 43.9483C71.3028 44.2149 71.4095 44.4686 71.5943 44.6564L75.9219 49.0877C76.0931 49.2548 76.3155 49.3563 76.5513 49.375C76.7872 49.3937 77.0221 49.3284 77.2164 49.1902C77.2505 49.1554 77.3166 49.1205 77.3527 49.0877C77.9599 48.5718 78.637 48.1488 79.3627 47.8319C80.344 47.41 81.3986 47.1964 82.4628 47.204C84.6053 47.207 86.6609 48.0713 88.1871 49.6109C88.9382 50.3801 89.5326 51.2943 89.9361 52.3004C90.3396 53.3066 90.5441 54.3847 90.5378 55.4724C90.541 56.5607 90.3345 57.6391 89.9302 58.6457C89.526 59.6523 88.9318 60.5674 88.1818 61.3386C87.4318 62.1098 86.5406 62.722 85.5593 63.1402C84.578 63.5584 83.5257 63.7743 82.4628 63.7757H71.8328C69.2885 63.7627 66.852 62.7221 65.0529 60.8798C63.2538 59.0376 62.2374 56.5428 62.2248 53.9375V47.1988C62.2264 46.6531 62.1226 46.1124 61.9194 45.6079C61.7161 45.1034 61.4175 44.645 61.0406 44.2592C60.6638 43.8733 60.2161 43.5675 59.7234 43.3594C59.2308 43.1513 58.7027 43.045 58.1698 43.0466H38.9878C38.717 43.0475 38.4575 43.158 38.266 43.3541C38.0745 43.5501 37.9666 43.8158 37.9658 44.0931V53.8975C37.9532 56.5027 36.9368 58.9976 35.1377 60.8398C33.3386 62.682 30.9021 63.7227 28.3578 63.7357C27.7983 63.7427 27.2395 63.696 26.6885 63.5961C26.4629 63.5824 26.2389 63.6426 26.049 63.7681C25.8591 63.8935 25.7132 64.0777 25.6324 64.2938L24.0293 70.3646C23.9663 70.628 24.0058 70.9062 24.1392 71.1405C24.2727 71.3747 24.4897 71.5468 24.7447 71.6204C25.1535 71.6902 25.5964 71.7599 26.0052 71.8256C26.7732 71.9319 27.5468 71.9901 28.3217 72C30.644 72.0003 32.9436 71.5321 35.0892 70.6223C37.2348 69.7124 39.1843 68.3788 40.8264 66.6974C42.4686 65.016 43.7712 63.0198 44.6599 60.8229C45.5485 58.626 46.0058 56.2713 46.0057 53.8934V51.312H54.0807V53.8934C54.0806 56.2713 54.5379 58.626 55.4266 60.8229C56.3152 63.0198 57.6178 65.016 59.26 66.6974C60.9021 68.3788 62.8517 69.7124 64.9972 70.6223C67.1428 71.5321 69.4424 72.0003 71.7647 72H82.3957C85.5957 71.998 88.7233 71.025 91.3836 69.204C94.0439 67.383 96.1175 64.7955 97.3425 61.7685C98.5675 58.7415 98.8891 55.4106 98.2664 52.1966C97.6438 48.9825 96.105 46.0295 93.8443 43.7105C91.8662 41.6627 89.3809 40.205 86.6551 39.4936ZM42.0238 34.7844H61.9863L64.5073 37.3657C64.5996 37.465 64.7106 37.5439 64.8336 37.5979C64.9565 37.6519 65.0889 37.6797 65.2227 37.6797C65.3565 37.6797 65.4889 37.6519 65.6119 37.5979C65.7349 37.5439 65.8459 37.465 65.9381 37.3657L70.2316 32.9694L70.2657 32.9345C70.4092 32.7777 70.4999 32.5779 70.5244 32.3645C70.549 32.151 70.506 31.9351 70.402 31.7485L69.9932 31.3299L66.5173 27.7707L65.6315 26.8637C65.5396 26.7642 65.4286 26.6849 65.3056 26.6309C65.1825 26.5769 65.05 26.5493 64.9161 26.5498H42.0238C41.4905 26.5412 40.9609 26.6413 40.4657 26.8443C39.9705 27.0473 39.5198 27.3492 39.1397 27.7323C38.7595 28.1155 38.4577 28.5722 38.2516 29.0759C38.0455 29.5797 37.9394 30.1204 37.9394 30.6666C37.9394 31.2127 38.0455 31.7534 38.2516 32.2572C38.4577 32.761 38.7595 33.2177 39.1397 33.6008C39.5198 33.984 39.9705 34.2858 40.4657 34.4888C40.9609 34.6918 41.4905 34.792 42.0238 34.7833V34.7844ZM143.151 34.7844H163.113L165.634 37.3657C165.727 37.465 165.838 37.5439 165.961 37.5979C166.084 37.6519 166.216 37.6797 166.35 37.6797C166.484 37.6797 166.616 37.6519 166.739 37.5979C166.862 37.5439 166.973 37.465 167.065 37.3657L171.359 32.9694L171.393 32.9345C171.536 32.7777 171.627 32.5779 171.651 32.3645C171.676 32.151 171.633 31.9351 171.529 31.7485L171.12 31.3299L167.645 27.7707L166.76 26.8637C166.668 26.7642 166.557 26.685 166.434 26.631C166.311 26.577 166.178 26.5494 166.044 26.5498H143.147C142.614 26.5412 142.084 26.6413 141.589 26.8443C141.094 27.0473 140.643 27.3492 140.263 27.7323C139.883 28.1155 139.581 28.5722 139.375 29.0759C139.169 29.5797 139.062 30.1204 139.062 30.6666C139.062 31.2127 139.169 31.7534 139.375 32.2572C139.581 32.761 139.883 33.2177 140.263 33.6008C140.643 33.984 141.094 34.2858 141.589 34.4888C142.084 34.6918 142.614 34.792 143.147 34.7833L143.151 34.7844ZM106.762 38.9017C106.056 38.9003 105.35 38.9469 104.65 39.0412C104.284 39.0796 103.92 39.1378 103.56 39.2156C103.431 39.2489 103.311 39.3079 103.205 39.3893C103.1 39.4708 103.011 39.5729 102.945 39.6898C102.878 39.8068 102.835 39.9361 102.818 40.0703C102.8 40.2045 102.809 40.3408 102.844 40.4714L104.411 46.4724V46.5073C104.476 46.7267 104.614 46.9162 104.8 47.0434C104.987 47.1706 105.21 47.2277 105.433 47.205C105.501 47.205 105.57 47.1701 105.634 47.1701H105.668C106.018 47.1247 106.371 47.1014 106.724 47.1003C108.866 47.1034 110.922 47.9677 112.448 49.5073C113.199 50.2765 113.794 51.1907 114.197 52.1968C114.601 53.203 114.805 54.2811 114.799 55.3687C114.796 57.5625 113.952 59.6674 112.448 61.2302C111.697 61.9992 110.804 62.6078 109.822 63.021C108.839 63.4342 107.786 63.6436 106.724 63.6372C106.011 63.6324 105.302 63.5387 104.612 63.3581C104.237 63.2555 103.862 63.1139 103.487 62.9744H103.453C103.225 62.8812 102.972 62.8758 102.74 62.9591C102.508 63.0425 102.314 63.209 102.193 63.4279L99.1609 68.801C99.0329 69.0432 99.0005 69.3265 99.0702 69.5925C99.1399 69.8585 99.3064 70.087 99.5356 70.2312C100.502 70.7077 101.505 71.1043 102.534 71.4172C103.9 71.7957 105.31 71.9834 106.725 71.9754C109.926 71.9748 113.055 71.0024 115.717 69.1812C118.379 67.3599 120.454 64.7715 121.679 61.7432C122.904 58.7148 123.225 55.3825 122.602 52.1673C121.978 48.9521 120.437 45.9985 118.174 43.6797C115.122 40.6244 111.025 38.9097 106.757 38.9006L106.762 38.9017ZM187.786 39.4947L196.883 30.1797C196.98 30.0853 197.057 29.9716 197.11 29.8457C197.163 29.7198 197.19 29.5842 197.19 29.4472C197.19 29.3102 197.163 29.1746 197.11 29.0487C197.057 28.9228 196.98 28.8091 196.883 28.7146L192.59 24.3183C192.501 24.2209 192.394 24.1425 192.275 24.0879C192.157 24.0333 192.029 24.0035 191.898 24.0003C191.768 23.997 191.639 24.0204 191.518 24.069C191.397 24.1176 191.286 24.1905 191.193 24.2834L172.725 43.1934L172.691 43.2283C172.516 43.4251 172.421 43.6838 172.427 43.9504C172.434 44.2169 172.541 44.4706 172.725 44.6585L177.053 49.0897C177.224 49.2569 177.446 49.3584 177.682 49.3771C177.918 49.3958 178.153 49.3305 178.347 49.1923C178.382 49.1574 178.448 49.1225 178.484 49.0897C179.091 48.5738 179.768 48.1508 180.494 47.8339C181.475 47.412 182.53 47.1984 183.594 47.206C185.736 47.2091 187.792 48.0734 189.318 49.613C190.069 50.3822 190.664 51.2963 191.067 52.3025C191.471 53.3086 191.675 54.3867 191.669 55.4744C191.672 56.5628 191.466 57.6411 191.061 58.6477C190.657 59.6543 190.063 60.5694 189.313 61.3406C188.563 62.1119 187.672 62.7241 186.69 63.1423C185.709 63.5604 184.657 63.7764 183.594 63.7777H172.963C170.419 63.7648 167.982 62.7241 166.183 60.8819C164.384 59.0397 163.367 56.5448 163.355 53.9396V47.1988C163.356 46.6531 163.253 46.1124 163.049 45.6079C162.846 45.1034 162.548 44.645 162.171 44.2592C161.794 43.8733 161.346 43.5675 160.853 43.3594C160.361 43.1513 159.833 43.045 159.3 43.0466H140.08C139.809 43.0475 139.549 43.158 139.358 43.3541C139.166 43.5501 139.059 43.8158 139.058 44.0931V53.8975C139.045 56.5027 138.029 58.9976 136.23 60.8398C134.431 62.682 131.994 63.7227 129.45 63.7357C128.89 63.7427 128.331 63.696 127.78 63.5961C127.555 63.5824 127.331 63.6426 127.141 63.7681C126.951 63.8935 126.805 64.0777 126.724 64.2938L125.121 70.3646C125.058 70.628 125.098 70.9062 125.231 71.1405C125.365 71.3747 125.582 71.5468 125.837 71.6204C126.245 71.6902 126.688 71.7599 127.097 71.8256C127.865 71.9319 128.639 71.9901 129.414 72C131.736 72.0003 134.036 71.5321 136.181 70.6223C138.327 69.7124 140.276 68.3788 141.918 66.6974C143.561 65.016 144.863 63.0198 145.752 60.8229C146.64 58.626 147.098 56.2713 147.098 53.8934V51.312H155.173V53.8934C155.173 56.2713 155.63 58.626 156.519 60.8229C157.407 63.0198 158.71 65.016 160.352 66.6974C161.994 68.3788 163.944 69.7124 166.089 70.6223C168.235 71.5321 170.534 72.0003 172.857 72H183.488C186.688 71.998 189.815 71.025 192.476 69.204C195.136 67.383 197.209 64.7955 198.434 61.7685C199.66 58.7415 199.981 55.4106 199.358 52.1966C198.736 48.9825 197.197 46.0295 194.936 43.7105C192.976 41.6566 190.5 40.1973 187.781 39.4936L187.786 39.4947ZM219.302 43.7515C217.544 41.9568 215.408 40.5989 213.057 39.7824C210.706 38.9658 208.203 38.7122 205.742 39.0412C205.376 39.0796 205.012 39.1378 204.652 39.2156C204.523 39.2489 204.403 39.3079 204.297 39.3893C204.192 39.4708 204.103 39.5729 204.037 39.6898C203.97 39.8068 203.927 39.9361 203.909 40.0703C203.892 40.2045 203.901 40.3408 203.936 40.4714L205.503 46.4724V46.5073C205.568 46.7267 205.706 46.9162 205.892 47.0434C206.079 47.1706 206.302 47.2277 206.525 47.205C206.593 47.205 206.661 47.1701 206.726 47.1701H206.76C207.11 47.1247 207.463 47.1015 207.816 47.1003C209.958 47.1034 212.014 47.9677 213.54 49.5073C214.291 50.2765 214.886 51.1907 215.289 52.1968C215.693 53.203 215.897 54.2811 215.891 55.3687C215.888 57.5625 215.044 59.6674 213.54 61.2302C212.789 61.9992 211.896 62.6079 210.913 63.0211C209.931 63.4343 208.878 63.6437 207.816 63.6372C207.103 63.6324 206.394 63.5387 205.704 63.3581C205.329 63.2555 204.954 63.1139 204.579 62.9744H204.545C204.317 62.8812 204.064 62.8758 203.832 62.9591C203.6 63.0425 203.406 63.209 203.285 63.4279L200.253 68.801C200.125 69.0432 200.092 69.3265 200.162 69.5925C200.232 69.8585 200.398 70.087 200.628 70.2312C201.595 70.7077 202.598 71.1043 203.626 71.4172C204.993 71.7957 206.403 71.9834 207.818 71.9754C209.943 71.977 212.048 71.5495 214.012 70.7175C215.976 69.8854 217.76 68.665 219.263 67.1262C220.766 65.5873 221.958 63.7602 222.771 61.7492C223.584 59.7383 224.001 57.583 224 55.4067C224.011 53.2414 223.601 51.0955 222.794 49.0941C221.987 47.0926 220.798 45.2758 219.298 43.7494L219.302 43.7515Z" fill="#0069D1"/>
</svg>
